<?xml version="1.0" standalone="no"?>
<!DOCTYPE svg PUBLIC "-//W3C//DTD SVG 20010904//EN"
 "http://www.w3.org/TR/2001/REC-SVG-20010904/DTD/svg10.dtd">
<svg version="1.0" xmlns="http://www.w3.org/2000/svg"
 width="700.000000pt" height="700.000000pt" viewBox="0 0 700.000000 700.000000"
 preserveAspectRatio="xMidYMid meet">
<metadata>
Created by potrace 1.14, written by Peter Selinger 2001-2017
</metadata>
<g transform="translate(0.000000,700.000000) scale(0.100000,-0.100000)"
fill="#000000" stroke="none">
<path d="M3275 4591 c-271 -53 -538 -190 -885 -456 -65 -49 -317 -256 -375
-306 -16 -15 -73 -64 -125 -109 -52 -45 -113 -99 -136 -119 -94 -84 -188 -167
-206 -182 -55 -49 -366 -325 -413 -368 -22 -20 -76 -68 -119 -106 -44 -39 -87
-77 -96 -85 -9 -8 -49 -44 -89 -80 -40 -35 -79 -76 -87 -92 -41 -80 12 -187
103 -204 73 -14 94 1 393 270 19 17 159 141 310 275 151 134 293 260 315 280
51 47 330 289 415 361 36 30 67 57 70 60 3 3 57 46 120 96 289 227 446 329
630 407 73 31 114 44 235 74 40 10 262 11 310 1 28 -5 61 -11 75 -14 162 -32
399 -158 654 -347 l89 -66 26 20 c14 11 56 48 93 81 37 33 77 67 88 76 19 17
17 19 -84 95 -246 185 -405 280 -611 367 -48 20 -144 49 -195 59 -30 6 -66 14
-80 17 -14 4 -95 8 -180 9 -116 2 -178 -1 -245 -14z"/>
<path d="M799 4497 c-61 -41 -86 -125 -55 -186 8 -15 47 -56 87 -92 40 -35 77
-69 83 -74 6 -6 73 -65 149 -133 l137 -123 110 97 110 97 -67 62 c-202 186
-392 349 -420 361 -47 20 -95 17 -134 -9z"/>
<path d="M6065 4505 c-16 -7 -84 -62 -150 -121 -236 -210 -274 -244 -590 -525
-176 -156 -352 -311 -390 -344 -38 -33 -79 -68 -90 -78 -65 -60 -318 -267
-425 -349 -277 -211 -481 -323 -692 -379 -108 -29 -325 -32 -436 -6 -191 45
-401 154 -647 336 -49 37 -95 70 -101 73 -10 7 -20 0 -133 -100 -35 -31 -73
-63 -83 -70 -17 -13 -11 -19 79 -89 132 -101 329 -231 433 -286 143 -74 318
-139 420 -154 19 -3 55 -9 80 -13 73 -14 278 -10 370 7 271 49 534 182 885
448 105 79 281 221 305 245 3 3 32 27 65 55 33 27 62 52 65 55 3 3 75 66 160
140 85 74 162 141 170 150 8 8 49 44 90 80 41 36 77 68 80 71 3 3 63 57 135
120 71 63 137 121 145 129 9 8 49 44 90 80 41 36 99 87 128 114 30 26 68 60
85 75 105 91 138 127 148 162 37 121 -82 227 -196 174z"/>
<path d="M5763 3077 c-60 -50 -80 -69 -134 -118 l-49 -46 230 -204 c127 -112
243 -209 258 -216 114 -50 230 56 193 177 -8 28 -32 57 -88 107 -42 37 -81 73
-87 78 -6 6 -47 42 -90 80 -44 39 -87 77 -96 85 -9 8 -35 32 -58 52 l-41 38
-38 -33z"/>
</g>
</svg>
